# This file uses centimeters as units for non-parametric coordinates.

mtllib SeaStar.mtl
g default
v 0.019144 0.000000 -0.077375
v 0.042096 0.000000 -0.333910
v -0.128032 0.000000 -0.125196
v -0.350438 0.000000 -0.206368
v -0.218992 0.000000 0.000000
v -0.350438 0.000000 0.206368
v -0.128032 0.000000 0.125196
v 0.042096 0.000000 0.333910
v 0.019144 0.000000 0.077375
v 0.284697 0.000000 0.000000
v -0.066398 0.000000 0.000000
v -0.066398 0.111252 0.000000
vt 0.648539 0.329847
vt 0.683664 0.331165
vt 0.634807 0.347973
vt 0.584147 0.337816
vt 0.618784 0.331836
vt 0.587029 0.403481
vt 0.631360 0.296403
vt 0.658275 0.357383
vt 0.666771 0.388550
vt 0.636590 0.374654
vt 0.612800 0.360422
vt 0.608528 0.392443
vt 0.634504 0.411010
vt 0.600255 0.394853
vt 0.596937 0.415778
vt 0.594539 0.450959
vt 0.576010 0.419088
vt 0.544196 0.425295
vt 0.566396 0.400209
vt 0.553047 0.369485
vt 0.581380 0.385230
vt 0.608860 0.360657
vn 0.000000 -1.000000 0.000000
vn 0.000000 -1.000000 0.000000
vn 0.000000 -1.000000 0.000000
vn 0.000000 -1.000000 0.000000
vn 0.000000 -1.000000 0.000000
vn 0.000000 -1.000000 0.000000
vn 0.000000 -1.000000 0.000000
vn 0.000000 -1.000000 0.000000
vn 0.000000 -1.000000 0.000000
vn 0.000000 -1.000000 0.000000
vn 0.000000 -1.000000 0.000000
vn 0.000000 -1.000000 0.000000
vn 0.000000 -1.000000 0.000000
vn 0.000000 -1.000000 0.000000
vn 0.000000 -1.000000 0.000000
vn 0.000000 -1.000000 0.000000
vn 0.000000 -1.000000 0.000000
vn 0.000000 -1.000000 0.000000
vn 0.000000 -1.000000 0.000000
vn 0.000000 -1.000000 0.000000
vn 0.000000 -1.000000 0.000000
vn 0.000000 -1.000000 0.000000
vn 0.000000 -1.000000 0.000000
vn 0.000000 -1.000000 0.000000
vn 0.000000 -1.000000 0.000000
vn 0.000000 -1.000000 0.000000
vn 0.000000 -1.000000 0.000000
vn 0.000000 -1.000000 0.000000
vn 0.000000 -1.000000 0.000000
vn 0.000000 -1.000000 0.000000
vn 0.814494 0.575578 0.072874
vn 0.814494 0.575578 0.072874
vn 0.814494 0.575578 0.072874
vn -0.511034 0.751881 -0.416557
vn -0.511034 0.751881 -0.416557
vn -0.511034 0.751881 -0.416557
vn 0.259024 0.655152 -0.709706
vn 0.259024 0.655152 -0.709706
vn 0.259024 0.655152 -0.709706
vn -0.551569 0.756534 0.351323
vn -0.551569 0.756534 0.351323
vn -0.551569 0.756534 0.351323
vn -0.551569 0.756534 -0.351323
vn -0.551569 0.756534 -0.351323
vn -0.551569 0.756534 -0.351323
vn 0.259024 0.655152 0.709706
vn 0.259024 0.655152 0.709706
vn 0.259024 0.655152 0.709706
vn -0.511034 0.751881 0.416557
vn -0.511034 0.751881 0.416557
vn -0.511034 0.751881 0.416557
vn 0.814494 0.575578 -0.072874
vn 0.814494 0.575578 -0.072874
vn 0.814494 0.575578 -0.072874
vn 0.209712 0.661817 0.719736
vn 0.209712 0.661817 0.719736
vn 0.209712 0.661817 0.719736
vn 0.209712 0.661817 -0.719736
vn 0.209712 0.661817 -0.719736
vn 0.209712 0.661817 -0.719736
s off
g SeaStar
usemtl aiStandardSurface3SG
f 2/22/1 1/14/2 11/6/3
f 3/21/4 2/22/5 11/6/6
f 4/20/7 3/21/8 11/6/9
f 5/19/10 4/20/11 11/6/12
f 6/18/13 5/19/14 11/6/15
f 7/17/16 6/18/17 11/6/18
f 8/16/19 7/17/20 11/6/21
f 9/15/22 8/16/23 11/6/24
f 10/13/25 9/15/26 11/6/27
f 1/14/28 10/13/29 11/6/30
f 1/1/31 2/2/32 12/3/33
f 2/2/34 3/8/35 12/3/36
f 3/8/37 4/9/38 12/3/39
f 4/9/40 5/10/41 12/3/42
f 5/10/43 6/12/44 12/3/45
f 6/12/46 7/11/47 12/3/48
f 7/11/49 8/4/50 12/3/51
f 8/4/52 9/5/53 12/3/54
f 9/5/55 10/7/56 12/3/57
f 1/1/58 12/3/59 10/7/60
