# This file uses centimeters as units for non-parametric coordinates.

mtllib Rock02.mtl
g default
v -0.434776 1.063083 3.446457
v -0.682196 -0.064619 3.921600
v 2.970976 -0.064621 2.816420
v 2.912619 0.759188 2.625330
v 1.598155 2.256351 2.449747
v -0.669313 2.125892 3.234709
v 2.356981 2.327797 1.171526
v 2.774868 1.271235 0.099913
v 3.111775 -0.064620 0.079390
v 3.333961 0.830532 -1.088266
v 3.418502 -0.064620 -0.798172
v 2.653225 2.551527 0.110876
v 2.314005 2.929962 -1.222097
v 2.975735 0.957606 -1.828039
v 2.329126 2.244039 -2.358206
v 2.315919 2.536663 -2.095339
v 2.579072 -0.064620 -2.846224
v 2.362011 1.175565 -2.739412
v -1.827330 2.147941 2.937140
v -2.159586 1.112327 3.267435
v -2.517952 -0.064620 3.063498
v -3.500216 1.852325 0.363928
v -3.595061 -0.064621 0.394548
v -2.329586 3.332691 0.140024
v -1.516275 3.183290 2.334791
v -0.512627 3.279950 2.551809
v 0.331168 3.252232 2.586023
v 1.982557 2.972659 1.307604
v 2.070634 3.049478 0.318001
v 1.711178 3.258895 -0.904259
v -0.492812 3.362869 -2.284929
v -1.019315 2.451834 -2.962526
v -0.802312 0.876729 -3.501585
v -0.928381 -0.064621 -3.921602
v 0.940596 2.949656 -2.199366
v 0.686378 2.346155 -2.655020
v 0.807920 1.026839 -3.106440
v 0.927333 -0.064620 -3.339964
v -2.878438 1.600586 -2.533503
v -1.872180 3.356767 -1.689508
v -2.897075 -0.064621 -2.572302
v -2.784847 0.373079 -2.385466
v 0.258904 3.787292 -0.468744
v -1.106551 3.771338 0.047226
v 0.501673 3.897374 0.729334
vt 0.337112 0.450880
vt 0.353098 0.278942
vt 0.336445 0.287905
vt 0.367528 0.452221
vt 0.323439 0.460056
vt 0.367494 0.277369
vt 0.353271 0.288100
vt 0.337143 0.308562
vt 0.373006 0.460999
vt 0.339655 0.467888
vt 0.313486 0.459267
vt 0.384404 0.283630
vt 0.365364 0.286778
vt 0.328338 0.470371
vt 0.400797 0.281078
vt 0.396141 0.282332
vt 0.380419 0.291818
vt 0.301262 0.472754
vt 0.413956 0.276461
vt 0.440477 0.378015
vt 0.425773 0.411572
vt 0.411247 0.408488
vt 0.418453 0.371081
vt 0.399424 0.401492
vt 0.426513 0.339570
vt 0.441845 0.340033
vt 0.388061 0.391955
vt 0.367408 0.342715
vt 0.400333 0.338725
vt 0.447746 0.339345
vt 0.413905 0.319871
vt 0.432699 0.312080
vt 0.445212 0.309811
vt 0.397487 0.300094
vt 0.407186 0.300470
vt 0.397818 0.319104
vt 0.375144 0.310433
vt 0.368831 0.327090
vt 0.360874 0.308043
vt 0.337301 0.319410
vt 0.390170 0.412120
vt 0.397257 0.423761
vt 0.410106 0.432313
vt 0.423065 0.293887
vt 0.435445 0.288018
vt 0.390353 0.336492
vt 0.397000 0.363236
vt 0.398835 0.318736
vt 0.370797 0.408646
vt 0.378302 0.400993
vt 0.365892 0.428398
vt 0.339840 0.332037
vt 0.316011 0.432874
vt 0.333631 0.435444
vt 0.347825 0.434704
vt 0.300090 0.457196
vt 0.303489 0.443573
vt 0.427236 0.268584
vt 0.306181 0.439523
vn 0.265652 0.288326 0.919944
vn 0.265652 0.288326 0.919944
vn 0.265652 0.288326 0.919944
vn 0.265652 0.288326 0.919944
vn 0.270775 0.302133 0.914000
vn 0.270775 0.302133 0.914000
vn 0.270775 0.302133 0.914000
vn 0.270775 0.302133 0.914000
vn 0.841647 0.496023 0.213520
vn 0.841647 0.496023 0.213520
vn 0.841647 0.496023 0.213520
vn 0.841647 0.496023 0.213520
vn 0.983242 0.181393 0.018220
vn 0.983242 0.181393 0.018220
vn 0.983242 0.181393 0.018220
vn 0.983242 0.181393 0.018220
vn 0.916342 0.213992 0.338416
vn 0.916342 0.213992 0.338416
vn 0.916342 0.213992 0.338416
vn 0.916342 0.213992 0.338416
vn 0.933953 0.085765 0.346952
vn 0.933953 0.085765 0.346952
vn 0.933953 0.085765 0.346952
vn 0.933953 0.085765 0.346952
vn 0.886817 0.418320 -0.196379
vn 0.886817 0.418320 -0.196379
vn 0.886817 0.418320 -0.196379
vn 0.886817 0.418320 -0.196379
vn 0.915820 0.349068 -0.198559
vn 0.915820 0.349068 -0.198559
vn 0.915820 0.349068 -0.198559
vn 0.915820 0.349068 -0.198559
vn 0.918807 0.000314 -0.394707
vn 0.918807 0.000314 -0.394707
vn 0.918807 0.000314 -0.394707
vn 0.918807 0.000314 -0.394708
vn 0.834261 0.199015 -0.514201
vn 0.834261 0.199015 -0.514201
vn 0.834261 0.199015 -0.514201
vn 0.834261 0.199015 -0.514201
vn -0.151652 0.253823 0.955288
vn -0.151652 0.253823 0.955288
vn -0.151652 0.253823 0.955288
vn -0.151652 0.253823 0.955288
vn -0.272614 0.182815 0.944595
vn -0.272614 0.182815 0.944595
vn -0.272614 0.182815 0.944595
vn -0.272614 0.182815 0.944595
vn -0.906402 0.109927 0.407861
vn -0.906402 0.109927 0.407861
vn -0.906402 0.109927 0.407861
vn -0.906402 0.109927 0.407861
vn -0.788216 0.401602 0.466295
vn -0.788216 0.401602 0.466295
vn -0.788216 0.401602 0.466295
vn -0.742302 0.558694 0.369931
vn -0.742302 0.558694 0.369931
vn -0.742302 0.558694 0.369931
vn -0.742302 0.558694 0.369931
vn -0.213860 0.528112 0.821804
vn -0.213860 0.528112 0.821804
vn -0.213860 0.528112 0.821804
vn -0.213860 0.528112 0.821804
vn 0.209816 0.341309 0.916234
vn 0.209816 0.341309 0.916234
vn 0.209816 0.341309 0.916234
vn 0.209816 0.341309 0.916234
vn 0.633200 0.541690 0.552838
vn 0.633200 0.541690 0.552838
vn 0.633200 0.541690 0.552838
vn 0.633200 0.541690 0.552838
vn 0.778954 0.582805 0.231449
vn 0.778954 0.582805 0.231449
vn 0.778954 0.582805 0.231449
vn 0.778954 0.582805 0.231449
vn 0.580352 0.813865 0.028550
vn 0.580352 0.813865 0.028550
vn 0.580352 0.813865 0.028550
vn 0.580352 0.813865 0.028550
vn 0.195936 0.545968 -0.814573
vn 0.194025 0.537964 -0.820335
vn 0.190503 0.523287 -0.830590
vn 0.190503 0.523287 -0.830590
vn 0.189194 0.336266 -0.922567
vn 0.189184 0.336257 -0.922573
vn 0.190786 0.337725 -0.921706
vn 0.190786 0.337725 -0.921706
vn 0.247978 0.233447 -0.940218
vn 0.247979 0.233202 -0.940278
vn 0.247224 0.295834 -0.922693
vn 0.247224 0.295834 -0.922693
vn 0.203641 0.578527 -0.789833
vn 0.203641 0.578527 -0.789833
vn 0.186953 0.334211 -0.923770
vn 0.186953 0.334211 -0.923770
vn 0.247747 0.174843 -0.952917
vn 0.247747 0.174843 -0.952917
vn 0.287127 0.876744 -0.385847
vn 0.287127 0.876744 -0.385847
vn 0.287127 0.876744 -0.385847
vn 0.287127 0.876744 -0.385847
vn -0.381192 0.613568 -0.691540
vn -0.381192 0.613568 -0.691540
vn -0.381192 0.613568 -0.691540
vn -0.381192 0.613568 -0.691540
vn -0.523273 0.264863 -0.809958
vn -0.523273 0.264863 -0.809958
vn -0.523273 0.264863 -0.809958
vn -0.523273 0.264863 -0.809958
vn -0.165806 -0.130526 -0.977482
vn -0.165806 -0.130526 -0.977482
vn -0.165806 -0.130526 -0.977482
vn -0.516747 0.405610 -0.753958
vn -0.516747 0.405610 -0.753958
vn -0.516747 0.405611 -0.753958
vn 0.254608 0.905974 -0.338210
vn 0.254608 0.905974 -0.338210
vn 0.254608 0.905974 -0.338210
vn 0.254608 0.905974 -0.338210
vn -0.086356 0.977217 -0.193882
vn -0.086356 0.977217 -0.193882
vn -0.086356 0.977217 -0.193882
vn -0.086356 0.977217 -0.193882
vn 0.399357 0.914709 -0.061826
vn 0.399357 0.914709 -0.061826
vn 0.399357 0.914709 -0.061826
vn 0.399357 0.914709 -0.061826
vn 0.437128 0.861529 0.258239
vn 0.437128 0.861529 0.258239
vn 0.437128 0.861529 0.258239
vn 0.437128 0.861529 0.258239
vn -0.114658 0.958527 0.260920
vn -0.114658 0.958527 0.260920
vn -0.114658 0.958527 0.260920
vn -0.114658 0.958527 0.260920
vn -0.042916 0.995643 -0.082785
vn -0.042916 0.995643 -0.082785
vn -0.042916 0.995643 -0.082785
vn -0.239563 0.949794 0.201249
vn -0.239563 0.949794 0.201249
vn -0.239563 0.949794 0.201249
vn -0.239563 0.949794 0.201249
vn -0.341604 0.936999 -0.073074
vn -0.341604 0.936999 -0.073074
vn -0.341604 0.936999 -0.073074
vn -0.792559 0.573027 -0.208543
vn -0.792559 0.573027 -0.208543
vn -0.792559 0.573027 -0.208543
vn -0.792559 0.573027 -0.208543
vn -0.969439 -0.013531 -0.244960
vn -0.969439 -0.013531 -0.244960
vn -0.969439 -0.013531 -0.244960
vn -0.969439 -0.013531 -0.244960
vn -0.919533 0.328115 -0.216331
vn -0.919533 0.328115 -0.216331
vn -0.919533 0.328115 -0.216331
s off
g Rock02 Done
usemtl aiStandardSurface3SG
f 1/42/1 2/43/2 3/9/3 4/4/4
f 1/42/5 4/4/6 5/51/7 6/41/8
f 8/1/9 7/55/10 5/51/11 4/4/12
f 8/1/13 4/4/14 3/9/15 9/10/16
f 11/14/17 10/5/18 8/1/19 9/10/20
f 10/5/21 12/54/22 7/55/23 8/1/24
f 14/11/25 13/53/26 12/54/27 10/5/28
f 14/11/29 15/57/30 16/59/31 13/53/32
f 14/11/33 10/5/34 11/14/35 17/18/36
f 17/18/37 18/56/38 15/57/39 14/11/40
f 20/22/41 1/42/42 6/41/43 19/24/44
f 1/42/45 20/22/46 21/21/47 2/43/48
f 23/20/49 21/21/50 20/22/51 22/23/52
f 22/23/53 20/22/54 19/24/55
f 25/27/56 24/47/57 22/23/58 19/24/59
f 6/41/60 26/50/61 25/27/62 19/24/63
f 5/51/64 27/49/65 26/50/66 6/41/67
f 28/7/68 27/8/69 5/3/70 7/2/71
f 29/13/72 28/7/73 7/2/74 12/6/75
f 12/6/76 13/12/77 30/17/78 29/13/79
s 1
f 35/34/80 36/35/81 32/31/82 31/48/83
s 2
f 36/35/84 37/44/85 33/32/86 32/31/87
s 3
f 37/44/88 38/45/89 34/33/90 33/32/91
s 1
f 15/15/92 36/35/81 35/34/80 16/16/93
s 2
f 18/19/94 37/44/85 36/35/84 15/15/95
s 3
f 17/58/96 38/45/89 37/44/88 18/19/97
s off
f 13/12/98 16/16/99 35/34/100 30/17/101
f 32/31/102 39/25/103 40/29/104 31/48/105
f 32/31/106 33/32/107 41/30/108 42/26/109
f 39/25/110 32/31/111 42/26/112
f 34/33/113 41/30/114 33/32/115
f 30/17/116 35/34/117 31/36/118 43/37/119
f 40/46/120 44/38/121 43/37/122 31/36/123
f 30/17/124 43/37/125 45/39/126 29/13/127
f 29/13/128 45/39/129 27/8/130 28/7/131
f 27/8/132 45/39/133 44/38/134 26/40/135
f 43/37/136 44/38/137 45/39/138
f 24/28/139 25/52/140 26/40/141 44/38/142
f 44/38/143 40/46/144 24/28/145
f 39/25/146 22/23/147 24/47/148 40/29/149
f 22/23/150 39/25/151 42/26/152 23/20/153
f 41/30/154 23/20/155 42/26/156
