# This file uses centimeters as units for non-parametric coordinates.

mtllib Roof.mtl
g default
v -2.727926 0.192565 0.657022
v 2.727927 0.192565 0.657022
v -0.098796 1.949098 0.657022
v 0.098795 1.949098 0.657022
v -0.098796 1.949098 -0.657022
v 0.098795 1.949098 -0.657022
v -2.727926 0.192565 -0.657022
v 2.727927 0.192565 -0.657022
v -2.256179 0.258749 0.657022
v 2.256181 0.258749 0.657022
v 0.073052 1.720250 0.657022
v -0.073053 1.720250 0.657022
v -0.073053 1.720250 -0.657022
v 0.073052 1.720250 -0.657022
v 2.256181 0.258749 -0.657022
v -2.256179 0.258749 -0.657022
v -2.256179 0.258749 0.496458
v 2.256181 0.258749 0.496458
v 0.073052 1.720250 0.496458
v -0.073053 1.720250 0.496458
v -0.073053 1.720250 -0.496458
v 0.073052 1.720250 -0.496458
v 2.256181 0.258749 -0.496458
v -2.256179 0.258749 -0.496458
v -2.727926 0.001457 0.657022
v 2.727927 0.001457 0.657022
v -2.727926 0.001457 -0.657022
v 2.727927 0.001457 -0.657022
vt 0.020247 0.885536
vt 0.149775 0.951543
vt 0.044059 0.889069
vt 0.020237 0.889001
vt 0.100898 0.944865
vt 0.102052 0.983294
vt 0.044406 0.767381
vt 0.152083 0.912927
vt 0.019955 0.987907
vt 0.044416 0.763917
vt 0.098470 0.983287
vt 0.104480 0.944858
vt 0.064016 0.873591
vt 0.147442 0.878847
vt 0.145820 0.876429
vt 0.064018 0.876502
vt 0.106270 0.905870
vt 0.102001 0.905382
vt 0.103618 0.902962
vt 0.106267 0.902959
vt 0.109236 0.865686
vt 0.104968 0.865193
vt 0.106588 0.862775
vt 0.109236 0.862775
vt 0.067019 0.833358
vt 0.067018 0.836269
vt 0.150439 0.838710
vt 0.148820 0.836291
vt 0.044242 0.824702
vt 0.044232 0.828284
vt 0.020421 0.824634
vt 0.020410 0.828216
vt 0.050876 0.947888
vt 0.043776 0.987975
vt 0.152076 0.909462
vt 0.020594 0.763849
vt 0.149782 0.948078
vt 0.050869 0.951353
vt 0.044068 0.885604
vt 0.053170 0.909646
vt 0.020584 0.767313
vt 0.053177 0.913110
vt 0.101593 0.979145
vt 0.141221 0.952726
vt 0.059419 0.952569
vt 0.098945 0.979140
vt 0.061731 0.914294
vt 0.101357 0.940715
vt 0.104005 0.940710
vt 0.143533 0.914142
vt 0.148821 0.833380
vt 0.065398 0.838688
vt 0.106587 0.865685
vt 0.110855 0.865194
vt 0.103621 0.905873
vt 0.107888 0.905377
vt 0.145818 0.873519
vt 0.062401 0.878922
vn 0.000000 0.000000 1.000000
vn 0.000000 0.000000 1.000000
vn 0.000000 0.000000 1.000000
vn 0.000000 0.000000 1.000000
vn 0.000000 1.000000 0.000000
vn 0.000000 1.000000 0.000000
vn 0.000000 1.000000 0.000000
vn 0.000000 1.000000 0.000000
vn 0.000000 0.000000 -1.000000
vn 0.000000 0.000000 -1.000000
vn 0.000000 0.000000 -1.000000
vn 0.000000 0.000000 -1.000000
vn 0.555527 0.831499 0.000000
vn 0.555527 0.831499 0.000000
vn 0.555527 0.831499 0.000000
vn 0.555527 0.831499 0.000000
vn -0.555527 0.831498 0.000000
vn -0.555527 0.831498 0.000000
vn -0.555527 0.831498 0.000000
vn -0.555527 0.831498 0.000000
vn 0.000000 0.000000 1.000000
vn 0.000000 0.000000 1.000000
vn 0.000000 0.000000 1.000000
vn 0.000000 0.000000 1.000000
vn 0.000000 0.000000 1.000000
vn 0.000000 0.000000 1.000000
vn 0.000000 0.000000 1.000000
vn 0.000000 0.000000 1.000000
vn 0.000000 0.000000 1.000000
vn 0.000000 0.000000 1.000000
vn 0.000000 0.000000 1.000000
vn 0.000000 0.000000 1.000000
vn 0.000000 0.000000 1.000000
vn 0.000000 0.000000 1.000000
vn 0.000000 0.000000 1.000000
vn 0.000000 0.000000 1.000000
vn 0.000000 0.000000 -1.000000
vn 0.000000 0.000000 -1.000000
vn 0.000000 0.000000 -1.000000
vn 0.000000 0.000000 -1.000000
vn -0.000000 0.000000 -1.000000
vn -0.000000 0.000000 -1.000000
vn -0.000000 0.000000 -1.000000
vn -0.000000 0.000000 -1.000000
vn 0.000000 0.000000 -1.000000
vn 0.000000 0.000000 -1.000000
vn 0.000000 0.000000 -1.000000
vn 0.000000 0.000000 -1.000000
vn -0.000000 0.000000 -1.000000
vn -0.000000 0.000000 -1.000000
vn -0.000000 0.000000 -1.000000
vn -0.000000 0.000000 -1.000000
vn 0.000000 1.000000 0.000000
vn 0.000000 1.000000 0.000000
vn 0.000000 1.000000 0.000000
vn 0.000000 1.000000 0.000000
vn -0.556302 -0.830980 0.000000
vn -0.556302 -0.830980 0.000000
vn -0.556302 -0.830980 0.000000
vn -0.556302 -0.830980 0.000000
vn 0.000000 -1.000000 0.000000
vn 0.000000 -1.000000 0.000000
vn 0.000000 -1.000000 0.000000
vn 0.000000 -1.000000 0.000000
vn 0.556302 -0.830980 0.000000
vn 0.556302 -0.830980 0.000000
vn 0.556302 -0.830980 0.000000
vn 0.556302 -0.830980 0.000000
vn 0.000000 -1.000000 0.000000
vn 0.000000 -1.000000 0.000000
vn 0.000000 -1.000000 0.000000
vn 0.000000 -1.000000 0.000000
vn -0.556302 -0.830980 0.000000
vn -0.556302 -0.830980 0.000000
vn -0.556302 -0.830980 0.000000
vn -0.556302 -0.830980 0.000000
vn 0.000000 1.000000 0.000000
vn 0.000000 1.000000 0.000000
vn 0.000000 1.000000 0.000000
vn 0.000000 1.000000 0.000000
vn 0.556302 -0.830980 0.000000
vn 0.556302 -0.830980 0.000000
vn 0.556302 -0.830980 0.000000
vn 0.556302 -0.830980 0.000000
vn 0.000000 0.000000 1.000000
vn 0.000000 0.000000 1.000000
vn 0.000000 0.000000 1.000000
vn 0.000000 0.000000 1.000000
vn 0.000000 0.000000 -1.000000
vn 0.000000 0.000000 -1.000000
vn 0.000000 0.000000 -1.000000
vn 0.000000 0.000000 -1.000000
vn -1.000000 0.000000 0.000000
vn -1.000000 0.000000 0.000000
vn -1.000000 0.000000 0.000000
vn -1.000000 0.000000 0.000000
vn 1.000000 0.000000 0.000000
vn 1.000000 0.000000 0.000000
vn 1.000000 0.000000 0.000000
vn 1.000000 0.000000 0.000000
vn 0.000000 -1.000000 0.000000
vn 0.000000 -1.000000 0.000000
vn 0.000000 -1.000000 0.000000
vn 0.000000 -1.000000 0.000000
s off
g pCube14 House1
usemtl aiStandardSurface3SG
f 17/16/1 18/15/2 19/20/3 20/19/4
f 3/32/5 4/31/6 6/29/7 5/30/8
f 21/24/9 22/23/10 23/26/11 24/28/12
f 2/41/13 8/7/14 6/29/15 4/31/16
f 7/39/17 1/1/18 3/32/19 5/30/20
f 1/42/21 2/8/22 10/50/23 9/47/24
f 2/8/25 4/12/26 11/49/27 10/50/28
f 4/12/29 3/5/30 12/48/31 11/49/32
f 3/5/33 1/42/34 9/47/35 12/48/36
f 5/6/37 6/11/38 14/46/39 13/43/40
f 6/11/41 8/38/42 15/45/43 14/46/44
f 8/38/45 7/2/46 16/44/47 15/45/48
f 7/2/49 5/6/50 13/43/51 16/44/52
f 9/13/53 10/57/54 18/15/55 17/16/56
f 10/14/57 11/56/58 19/20/59 18/15/60
f 11/17/61 12/55/62 20/19/63 19/20/64
f 12/18/65 9/58/66 17/16/67 20/19/68
f 13/21/69 14/53/70 22/23/71 21/24/72
f 14/22/73 15/52/74 23/26/75 22/23/76
f 15/25/77 16/51/78 24/28/79 23/26/80
f 16/27/81 13/54/82 21/24/83 24/28/84
f 2/8/85 1/42/86 25/40/87 26/35/88
f 7/2/89 8/38/90 28/33/91 27/37/92
f 1/1/93 7/39/94 27/3/95 25/4/96
f 8/7/97 2/41/98 26/36/99 28/10/100
f 26/9/101 25/4/102 27/3/103 28/34/104
