# This file uses centimeters as units for non-parametric coordinates.

mtllib SmallCorner.mtl
g default
v -3.599232 0.000000 2.615689
v -3.599232 0.663591 2.615689
v -2.586765 0.000000 1.641440
v -2.586765 0.663591 1.641440
v -3.599232 0.663591 -2.124923
v -2.586765 0.663591 -2.334993
v -2.586765 0.000000 -2.615689
v -3.599232 0.000000 -2.405619
v -2.686765 0.663591 1.741440
v -3.499232 0.663591 2.515689
v -2.686765 0.663591 -2.234993
v -3.499232 0.663591 -2.024923
v -2.686765 0.759649 1.741440
v -3.499232 0.759649 2.515689
v -2.686765 0.759649 -2.153264
v -3.499232 0.759649 -1.943194
v 3.599232 0.000000 2.615689
v 2.928442 0.663591 2.615689
v 2.776516 0.663591 2.515689
v 2.523699 0.759649 2.515689
v 2.134469 0.759649 1.741440
v 2.248516 0.663591 1.741440
v 2.283716 0.663591 1.641440
v 2.954506 0.000000 1.641440
v -3.599232 0.663591 -0.935973
v -3.499232 0.663591 -0.851528
v -3.499232 0.759649 -0.851528
v -2.686765 0.759649 -0.895487
v -3.599232 0.000000 -0.995487
v -3.599232 0.663591 -1.069446
v -3.499232 0.759649 -0.981381
v -3.499232 0.663591 -0.981381
v -3.520852 0.587633 -0.979123
v -3.420852 0.587633 -0.940350
v -3.420852 0.683691 -0.940350
vt 0.134590 0.900942
vt 0.132804 0.901270
vt 0.032050 0.956218
vt 0.133595 0.834679
vt 0.135255 0.903339
vt 0.133158 0.903488
vt 0.151340 0.850213
vt 0.152994 0.927384
vt 0.150608 0.901876
vt 0.149508 0.850226
vt 0.151496 0.925316
vt 0.062016 0.842314
vt 0.079016 0.842579
vt 0.077369 0.952893
vt 0.083333 0.970511
vt 0.106017 0.818405
vt 0.211949 0.946802
vt 0.119785 0.908213
vt 0.103213 0.911108
vt 0.119705 0.913346
vt 0.120908 0.938866
vt 0.103978 0.946888
vt 0.119180 0.910364
vt 0.121791 0.911134
vt 0.123369 0.936075
vt 0.134751 0.905155
vt 0.136683 0.922716
vt 0.034847 0.839380
vt 0.049718 0.847132
vt 0.177736 0.781112
vt 0.051453 0.844586
vt 0.181593 0.780429
vt 0.160538 0.794200
vt 0.198495 0.791708
vt 0.177440 0.805478
vt 0.122329 0.909837
vt 0.133063 0.904980
vt 0.135580 0.925059
vt 0.122224 0.907047
vt 0.033163 0.833889
vt 0.160914 0.820593
vt 0.214114 0.944660
vt 0.086786 0.971751
vt 0.059493 0.839680
vt 0.049112 0.940061
vt 0.033927 0.956232
vt 0.125785 0.822987
vt 0.131727 0.834698
vt 0.160341 0.926873
vt 0.050988 0.940056
vt 0.123352 0.819985
vt 0.162506 0.924731
vt 0.176796 0.924808
vt 0.197658 0.946725
vt 0.163072 0.819846
vt 0.160694 0.791922
vt 0.212707 0.806230
vt 0.214843 0.809513
vt 0.109469 0.964422
vt 0.108208 0.967827
vt 0.060460 0.945282
vt 0.057936 0.942646
vn 0.000000 0.000000 1.000000
vn 0.000000 0.000000 1.000000
vn 0.000000 0.000000 1.000000
vn 0.000000 0.000000 1.000000
vn 0.000000 1.000000 -0.000000
vn 0.000000 1.000000 -0.000000
vn 0.000000 1.000000 -0.000000
vn 0.000000 1.000000 -0.000000
vn 0.000000 0.000000 -1.000000
vn 0.000000 0.000000 -1.000000
vn 0.000000 0.000000 -1.000000
vn 0.000000 0.000000 -1.000000
vn 0.000000 -1.000000 0.000000
vn 0.000000 -1.000000 0.000000
vn 0.000000 -1.000000 0.000000
vn 0.000000 -1.000000 0.000000
vn -0.187695 0.382652 -0.904626
vn -0.187695 0.382652 -0.904626
vn -0.187695 0.382652 -0.904626
vn -0.187695 0.382652 -0.904626
vn -0.096629 0.394022 0.914007
vn -0.096629 0.394022 0.914007
vn -0.096629 0.394022 0.914007
vn -0.720143 0.076853 0.689556
vn -0.720143 0.076853 0.689556
vn -0.720143 0.076853 0.689556
vn 0.000000 1.000000 0.000000
vn 0.000000 1.000000 0.000000
vn 0.000000 1.000000 0.000000
vn 0.000000 1.000000 0.000000
vn 0.000000 1.000000 0.000000
vn 0.000000 1.000000 0.000000
vn 0.000000 1.000000 0.000000
vn 0.000000 1.000000 0.000000
vn 0.000000 1.000000 -0.000000
vn 0.000000 1.000000 -0.000000
vn 0.000000 1.000000 -0.000000
vn 0.000000 1.000000 -0.000000
vn -0.527321 0.174809 0.831489
vn -0.527321 0.174809 0.831489
vn -0.527321 0.174809 0.831489
vn -0.527321 0.174809 0.831489
vn 0.000000 0.000000 1.000000
vn 0.000000 0.000000 1.000000
vn 0.000000 0.000000 1.000000
vn 0.000000 0.000000 1.000000
vn 0.000000 0.000000 -1.000000
vn 0.000000 0.000000 -1.000000
vn 0.000000 0.000000 -1.000000
vn 0.000000 0.000000 -1.000000
vn -0.193214 0.635809 -0.747272
vn -0.193214 0.635809 -0.747272
vn -0.193214 0.635809 -0.747272
vn -0.193214 0.635809 -0.747272
vn -0.463787 0.000000 0.885947
vn -0.463787 0.000000 0.885947
vn -0.463787 0.000000 0.885947
vn -0.463787 0.000000 0.885947
vn 0.447327 0.854219 -0.264968
vn 0.447327 0.854219 -0.264968
vn 0.447327 0.854219 -0.264968
vn 0.447327 0.854219 -0.264968
vn 0.000000 1.000000 0.000000
vn 0.000000 1.000000 0.000000
vn 0.000000 1.000000 0.000000
vn 0.000000 1.000000 0.000000
vn 0.637609 0.644526 -0.421949
vn 0.637609 0.644526 -0.421949
vn 0.637609 0.644526 -0.421949
vn 0.637609 0.644526 -0.421949
vn 0.000000 1.000000 0.000000
vn 0.000000 1.000000 0.000000
vn 0.000000 1.000000 0.000000
vn 0.000000 1.000000 0.000000
vn -1.000000 0.000000 0.000000
vn -1.000000 0.000000 0.000000
vn -1.000000 0.000000 0.000000
vn -1.000000 0.000000 0.000000
vn 0.000000 1.000000 0.000000
vn 0.000000 1.000000 0.000000
vn 0.000000 1.000000 0.000000
vn 0.000000 1.000000 0.000000
vn 1.000000 0.000000 0.000000
vn 1.000000 0.000000 0.000000
vn 1.000000 0.000000 0.000000
vn 1.000000 0.000000 0.000000
vn 0.000000 1.000000 0.000000
vn 0.000000 1.000000 0.000000
vn 0.000000 1.000000 0.000000
vn 0.000000 1.000000 0.000000
vn 1.000000 0.000000 0.000000
vn 1.000000 0.000000 0.000000
vn 1.000000 0.000000 0.000000
vn 1.000000 0.000000 0.000000
vn 0.000000 -1.000000 0.000000
vn 0.000000 -1.000000 0.000000
vn 0.000000 -1.000000 0.000000
vn 0.000000 -1.000000 0.000000
vn -1.000000 0.000000 0.000000
vn -1.000000 0.000000 0.000000
vn -1.000000 0.000000 0.000000
vn -1.000000 0.000000 0.000000
vn -1.000000 0.000001 0.000000
vn -1.000000 0.000001 0.000000
vn -1.000000 0.000001 0.000000
vn -1.000000 0.000001 0.000000
vn 0.000000 -1.000000 0.000000
vn 0.000000 -1.000000 0.000000
vn 0.000000 -1.000000 0.000000
vn 1.000000 0.000004 0.000000
vn 1.000000 0.000004 0.000000
vn 1.000000 0.000004 0.000000
vn 0.000000 1.000000 0.000000
vn 0.000000 1.000000 0.000000
vn 0.000000 1.000000 0.000000
vn 0.000000 1.000000 0.000000
vn -1.000000 0.000001 0.000000
vn -1.000000 0.000001 0.000000
vn -1.000000 0.000001 0.000000
vn -1.000000 0.000001 0.000000
vn 0.000000 1.000000 0.000000
vn 0.000000 1.000000 0.000000
vn 0.000000 1.000000 0.000000
vn 0.000000 1.000000 0.000000
vn 0.322790 0.788229 -0.523929
vn 0.322790 0.788229 -0.523929
vn 0.322790 0.788229 -0.523929
vn 0.322790 0.788229 -0.523929
vn -0.749806 0.000000 -0.661658
vn -0.749806 0.000000 -0.661658
vn -0.749806 0.000000 -0.661658
vn -0.749806 0.000000 -0.661658
vn -0.036128 0.743530 -0.667726
vn -0.036128 0.743530 -0.667726
vn -0.036128 0.743530 -0.667726
vn -0.419219 0.081097 -0.904256
vn -0.419219 0.081097 -0.904256
vn -0.419219 0.081097 -0.904256
s off
g Wall
usemtl aiStandardSurface3SG
f 2/17/1 1/54/2 17/34/3 18/57/4
f 13/45/5 14/46/6 20/28/7 21/29/8
f 3/53/9 4/52/10 23/55/11 24/35/12
f 1/54/13 3/53/14 24/35/15 17/34/16
f 5/59/17 6/15/18 7/14/19 8/22/20
f 35/5/21 28/9/22 31/26/23
f 29/19/24 33/23/25 30/20/26
f 2/17/27 18/57/28 19/58/29 10/42/30
f 22/41/31 23/55/32 4/52/33 9/49/34
f 6/15/35 5/59/36 12/60/37 11/43/38
f 32/24/39 30/20/40 33/23/41 34/36/42
f 10/3/43 19/40/44 20/28/45 14/46/46
f 21/29/47 22/31/48 9/50/49 13/45/50
f 11/8/51 12/38/52 16/27/53 15/11/54
f 31/26/55 32/37/56 34/6/57 35/5/58
f 20/28/59 19/40/60 22/31/61 21/29/62
f 19/30/63 18/32/64 23/33/65 22/56/66
f 18/32/67 17/34/68 24/35/69 23/33/70
f 26/39/71 25/18/72 2/51/73 10/47/74
f 27/1/75 26/2/76 10/48/77 14/4/78
f 14/4/79 13/10/80 28/9/81 27/1/82
f 9/7/83 11/8/84 28/9/85 13/10/86
f 4/12/87 6/61/88 11/62/89 9/44/90
f 4/12/91 3/13/92 7/14/93 6/61/94
f 3/13/95 1/16/96 29/19/97 7/14/98
f 1/16/99 2/51/100 25/18/101 29/19/102
f 29/19/103 30/20/104 5/21/105 8/22/106
f 7/14/107 29/19/108 8/22/109
f 28/9/110 11/8/111 15/11/112
f 31/26/113 28/9/114 15/11/115 16/27/116
f 12/38/117 32/37/118 31/26/119 16/27/120
f 5/21/121 30/20/122 32/24/123 12/25/124
f 34/36/125 33/23/126 25/18/127 26/39/128
f 35/5/129 34/6/130 26/2/131 27/1/132
f 27/1/133 28/9/134 35/5/135
f 29/19/136 25/18/137 33/23/138
