# This file uses centimeters as units for non-parametric coordinates.

mtllib Torpedo.mtl
g default
v 0.293844 0.169651 5.000000
v 0.169651 0.293844 5.000000
v 0.000000 0.339302 5.000000
v -0.169651 0.293844 5.000000
v -0.293844 0.169651 5.000000
v -0.339302 0.000000 5.000000
v -0.293844 -0.169651 5.000000
v -0.169651 -0.293844 5.000000
v 0.000000 -0.339302 5.000000
v 0.169651 -0.293844 5.000000
v 0.293844 -0.169651 5.000000
v 0.339302 0.000000 5.000000
v 0.000000 0.000000 -5.000000
v 0.000000 0.000000 5.000000
v 0.866025 0.500000 -4.292889
v 1.000000 0.000000 -4.292888
v 0.866025 -0.500000 -4.292888
v 0.500000 -0.866025 -4.292888
v 0.000000 -1.000000 -4.292888
v -0.500000 -0.866025 -4.292888
v -0.866025 -0.500000 -4.292888
v -1.000000 0.000000 -4.292888
v -0.866025 0.500000 -4.292889
v -0.500000 0.866025 -4.292888
v 0.000000 1.000000 -4.292889
v 0.500000 0.866025 -4.292888
v 0.605789 0.349752 -4.770774
v 0.240505 0.138856 -5.000000
v 0.349752 0.605789 -4.770774
v 0.138856 0.240505 -5.000000
v 0.000000 0.699505 -4.770774
v 0.000000 0.277712 -5.000000
v -0.349752 0.605789 -4.770774
v -0.138856 0.240505 -5.000000
v -0.605789 0.349752 -4.770774
v -0.240505 0.138856 -5.000000
v -0.699505 0.000000 -4.770774
v -0.277711 0.000000 -5.000000
v -0.605789 -0.349752 -4.770774
v -0.240505 -0.138856 -5.000000
v -0.349752 -0.605789 -4.770774
v -0.138856 -0.240505 -5.000000
v 0.000000 -0.699505 -4.770774
v 0.000000 -0.277712 -5.000000
v 0.349752 -0.605789 -4.770774
v 0.138856 -0.240505 -5.000000
v 0.605789 -0.349752 -4.770774
v 0.240505 -0.138856 -5.000000
v 0.699505 0.000000 -4.770774
v 0.277711 0.000000 -5.000000
v 0.866025 0.500000 2.682428
v 1.000000 0.000000 2.682428
v 0.866025 -0.500000 2.682428
v 0.500000 -0.866025 2.682428
v 0.000000 -1.000000 2.682428
v -0.500000 -0.866025 2.682428
v -0.866025 -0.500000 2.682428
v -1.000000 0.000000 2.682428
v -0.866025 0.500000 2.682428
v -0.500000 0.866025 2.682428
v 0.000000 1.000000 2.682428
v 0.500000 0.866025 2.682428
v 0.586218 0.000000 4.133880
v 0.507679 -0.293109 4.133880
v -0.293109 -0.507679 4.133880
v -0.507679 -0.293109 4.133880
v -0.293109 0.507679 4.133880
v 0.000000 0.586218 4.133880
v 0.452235 0.000000 4.603860
v 0.391647 -0.226117 4.603860
v -0.226117 -0.391647 4.603860
v -0.391647 -0.226117 4.603860
v -0.226117 0.391647 4.603860
v 0.000000 0.452235 4.603860
v 1.703733 -0.299437 4.452463
v 1.625195 -0.592546 4.452463
v 1.569751 -0.299437 4.922443
v 1.509163 -0.525555 4.922443
v -1.111187 -1.325758 4.452463
v -1.325758 -1.111187 4.452463
v -1.044196 -1.209725 4.922443
v -1.209725 -1.044196 4.922443
v -0.592547 1.625195 4.452463
v -0.299438 1.703733 4.452463
v -0.525555 1.509162 4.922443
v -0.299438 1.569750 4.922443
vt 0.179579 0.339200
vt 0.169867 0.339067
vt 0.170098 0.372612
vt 0.169541 0.362915
vt 0.162180 0.377835
vt 0.155177 0.362719
vt 0.164889 0.362852
vt 0.171893 0.377914
vt 0.171700 0.401764
vt 0.161987 0.401685
vt 0.206526 0.400720
vt 0.212556 0.400680
vt 0.192160 0.400814
vt 0.196813 0.400783
vt 0.176546 0.377952
vt 0.156150 0.377786
vt 0.176963 0.411495
vt 0.176352 0.401801
vt 0.155502 0.338871
vt 0.165215 0.339004
vt 0.212400 0.376831
vt 0.192004 0.376964
vt 0.196657 0.376934
vt 0.206370 0.376870
vt 0.108917 0.418104
vt 0.098629 0.418177
vt 0.097654 0.279544
vt 0.107942 0.279472
vt 0.119205 0.418032
vt 0.118229 0.279400
vt 0.129493 0.417959
vt 0.138805 0.279255
vt 0.026614 0.418683
vt 0.025639 0.280051
vt 0.036902 0.418611
vt 0.035926 0.279979
vt 0.047190 0.418539
vt 0.046214 0.279907
vt 0.057478 0.418466
vt 0.056502 0.279834
vt 0.067766 0.418394
vt 0.066790 0.279762
vt 0.078054 0.418321
vt 0.077078 0.279689
vt 0.088342 0.418249
vt 0.087366 0.279617
vt 0.204174 0.329505
vt 0.201706 0.331973
vt 0.115779 0.418110
vt 0.126066 0.417989
vt 0.123230 0.465802
vt 0.118259 0.448004
vt 0.136267 0.419325
vt 0.126691 0.466255
vt 0.119063 0.457684
vt 0.105612 0.419686
vt 0.112299 0.448928
vt 0.119740 0.465843
vt 0.095771 0.422686
vt 0.112951 0.467396
vt 0.114465 0.458397
vt 0.116290 0.466378
vt 0.063444 0.447308
vt 0.070126 0.439484
vt 0.091497 0.460534
vt 0.101983 0.475750
vt 0.077847 0.432685
vt 0.096023 0.456549
vt 0.098417 0.467350
vt 0.164330 0.431667
vt 0.136213 0.470443
vt 0.104250 0.473095
vt 0.155594 0.426234
vt 0.141600 0.452767
vt 0.101909 0.464276
vt 0.106869 0.470789
vt 0.137068 0.461358
vt 0.133249 0.468600
vt 0.086453 0.427048
vt 0.109789 0.468876
vt 0.146176 0.422092
vt 0.136079 0.450339
vt 0.132809 0.459485
vt 0.130054 0.467194
vt 0.213386 0.338717
vt 0.210918 0.341186
vt 0.207546 0.335345
vt 0.207546 0.342089
vt 0.214290 0.335345
vt 0.204174 0.341186
vt 0.213386 0.331973
vt 0.201706 0.338717
vt 0.210918 0.329505
vt 0.200802 0.335345
vt 0.207546 0.328602
vt 0.139781 0.417887
vt 0.128517 0.279327
vt 0.149093 0.279182
vt 0.150069 0.417814
vt 0.387378 0.847046
vt 0.379352 0.850613
vt 0.377653 0.848605
vt 0.382820 0.841504
vt 0.388555 0.854125
vt 0.379820 0.853201
vt 0.374758 0.852780
vt 0.375177 0.847717
vt 0.376102 0.838983
vt 0.388678 0.832480
vt 0.396963 0.842160
vt 0.399298 0.854686
vt 0.386034 0.860844
vt 0.378932 0.855676
vt 0.372590 0.848185
vt 0.369023 0.840159
vt 0.376663 0.828239
vt 0.395057 0.866701
vt 0.380491 0.865402
vt 0.376925 0.857375
vt 0.370583 0.849885
vt 0.363481 0.844717
vt 0.364137 0.830574
vt 0.385377 0.874987
vt 0.373412 0.866578
vt 0.374337 0.857844
vt 0.369694 0.852360
vt 0.360960 0.851435
vt 0.354457 0.838859
vt 0.372850 0.877321
vt 0.366694 0.864057
vt 0.371862 0.856955
vt 0.370162 0.854948
vt 0.362136 0.858514
vt 0.350216 0.850874
vt 0.360835 0.873080
vt 0.352551 0.863399
vt 0.057938 0.455998
vt 0.100114 0.478699
vt 0.179254 0.363048
vt 0.185284 0.363130
vt 0.164068 0.372530
vt 0.185610 0.339282
vt 0.155956 0.401636
vt 0.186065 0.401880
vt 0.170932 0.411446
vt 0.186258 0.378031
vt 0.207278 0.410404
vt 0.222269 0.400617
vt 0.211931 0.410373
vt 0.222113 0.376767
vn 0.000001 0.000000 1.000000
vn 0.000001 0.000000 1.000000
vn 0.000000 0.000000 1.000000
vn 0.000000 0.000000 1.000000
vn 0.000000 0.000000 1.000000
vn 0.000000 0.000000 1.000000
vn 0.000000 0.000000 1.000000
vn 0.000000 0.000000 1.000000
vn 0.000000 0.000000 1.000000
vn 0.000000 0.000000 1.000000
vn 0.000000 0.000000 1.000000
vn 0.000000 0.000000 1.000000
vn 0.000000 0.000000 1.000000
vn 0.965926 0.258819 -0.000000
vn 0.965926 0.258819 -0.000000
vn 0.964975 0.258564 0.044373
vn 0.964975 0.258564 0.044373
vn 0.965926 -0.258819 -0.000000
vn 0.965926 -0.258819 -0.000000
vn 0.965248 -0.258637 0.037458
vn 0.965248 -0.258637 0.037458
vn 0.707107 -0.707107 0.000000
vn 0.707107 -0.707107 0.000000
vn 0.706410 -0.706410 0.044373
vn 0.706410 -0.706410 0.044373
vn 0.258819 -0.965926 0.000000
vn 0.258819 -0.965926 0.000000
vn 0.258518 -0.964804 0.048192
vn 0.258518 -0.964804 0.048192
vn -0.258819 -0.965926 0.000000
vn -0.258819 -0.965926 0.000000
vn -0.258564 -0.964975 0.044373
vn -0.258564 -0.964975 0.044373
vn -0.707107 -0.707107 0.000000
vn -0.707107 -0.707107 0.000000
vn -0.706611 -0.706611 0.037458
vn -0.706611 -0.706611 0.037458
vn -0.965926 -0.258819 -0.000000
vn -0.965926 -0.258819 -0.000000
vn -0.964975 -0.258564 0.044373
vn -0.964975 -0.258564 0.044373
vn -0.965926 0.258819 -0.000000
vn -0.965926 0.258819 -0.000000
vn -0.964804 0.258518 0.048192
vn -0.964804 0.258518 0.048192
vn -0.707107 0.707107 0.000000
vn -0.707107 0.707107 0.000000
vn -0.706410 0.706410 0.044373
vn -0.706410 0.706410 0.044373
vn -0.258819 0.965926 0.000000
vn -0.258819 0.965926 0.000000
vn -0.258637 0.965248 0.037458
vn -0.258637 0.965248 0.037458
vn 0.258819 0.965926 0.000000
vn 0.258819 0.965926 0.000000
vn 0.258564 0.964974 0.044373
vn 0.258564 0.964974 0.044373
vn 0.707107 0.707107 0.000000
vn 0.707107 0.707107 0.000000
vn 0.706285 0.706285 0.048192
vn 0.706285 0.706285 0.048192
vn 0.661698 0.382032 -0.645141
vn 0.373721 0.215768 -0.902096
vn 0.215769 0.373722 -0.902095
vn 0.382032 0.661699 -0.645141
vn 0.764064 -0.000000 -0.645141
vn 0.431537 0.000000 -0.902095
vn 0.000000 0.431537 -0.902095
vn 0.000000 0.764064 -0.645141
vn -0.215769 0.373722 -0.902095
vn -0.382032 0.661699 -0.645141
vn -0.373722 0.215768 -0.902095
vn -0.661698 0.382032 -0.645141
vn -0.431537 0.000000 -0.902095
vn -0.764064 -0.000000 -0.645141
vn -0.373722 -0.215768 -0.902095
vn -0.661699 -0.382032 -0.645141
vn -0.215769 -0.373722 -0.902095
vn -0.382032 -0.661699 -0.645141
vn 0.000000 -0.431537 -0.902095
vn 0.000000 -0.764064 -0.645141
vn 0.215769 -0.373722 -0.902095
vn 0.382032 -0.661699 -0.645141
vn 0.373721 -0.215768 -0.902096
vn 0.661699 -0.382032 -0.645141
vn 0.423274 0.733133 -0.532311
vn 0.733133 0.423275 -0.532311
vn 0.000000 0.846549 -0.532311
vn -0.423274 0.733133 -0.532311
vn -0.733133 0.423275 -0.532311
vn -0.846549 -0.000000 -0.532311
vn -0.733133 -0.423274 -0.532311
vn -0.423275 -0.733133 -0.532311
vn 0.000000 -0.846549 -0.532311
vn 0.423275 -0.733133 -0.532311
vn 0.733133 -0.423275 -0.532311
vn 0.846549 -0.000000 -0.532311
vn 0.000000 0.000000 -1.000000
vn 0.931263 0.249531 0.265486
vn 0.931263 0.249531 0.265486
vn 0.931263 -0.249531 0.265486
vn 0.931263 -0.249531 0.265486
vn 0.681732 -0.681732 0.265486
vn 0.681732 -0.681732 0.265486
vn 0.249531 -0.931263 0.265486
vn 0.249531 -0.931263 0.265486
vn -0.249531 -0.931263 0.265486
vn -0.249531 -0.931263 0.265486
vn -0.681732 -0.681732 0.265486
vn -0.681732 -0.681732 0.265486
vn -0.931263 -0.249531 0.265486
vn -0.931263 -0.249531 0.265486
vn -0.931263 0.249531 0.265486
vn -0.931263 0.249531 0.265486
vn -0.681732 0.681732 0.265486
vn -0.681732 0.681732 0.265486
vn -0.249531 0.931263 0.265486
vn -0.249531 0.931263 0.265486
vn 0.249531 0.931263 0.265486
vn 0.249531 0.931263 0.265486
vn 0.681732 0.681732 0.265486
vn 0.681732 0.681732 0.265486
vn 0.931263 0.249531 0.265486
vn 0.931263 -0.249531 0.265486
vn 0.931263 -0.249531 0.265486
vn 0.931263 -0.249531 0.265486
vn 0.931263 -0.249531 0.265486
vn 0.681732 -0.681732 0.265486
vn -0.249532 -0.931263 0.265486
vn -0.681732 -0.681732 0.265486
vn -0.681732 -0.681732 0.265486
vn -0.681732 -0.681732 0.265486
vn -0.681732 -0.681732 0.265486
vn -0.931263 -0.249531 0.265486
vn -0.681731 0.681733 0.265487
vn -0.249531 0.931263 0.265486
vn -0.249531 0.931263 0.265486
vn -0.249531 0.931263 0.265486
vn -0.249531 0.931263 0.265486
vn 0.249529 0.931264 0.265487
vn 0.931263 0.249531 0.265486
vn 0.931263 -0.249531 0.265486
vn 0.931263 -0.249531 0.265486
vn 0.931263 -0.249531 0.265486
vn 0.931263 -0.249531 0.265486
vn 0.681732 -0.681732 0.265487
vn -0.249531 -0.931263 0.265486
vn -0.681732 -0.681732 0.265486
vn -0.681732 -0.681732 0.265486
vn -0.681732 -0.681732 0.265486
vn -0.681732 -0.681732 0.265486
vn -0.931263 -0.249531 0.265486
vn -0.681732 0.681732 0.265486
vn -0.249530 0.931263 0.265486
vn -0.249530 0.931263 0.265486
vn -0.249530 0.931263 0.265486
vn -0.249530 0.931263 0.265486
vn 0.249530 0.931263 0.265486
vn 0.256440 -0.068713 -0.964115
vn 0.256440 -0.068713 -0.964115
vn 0.256440 -0.068713 -0.964115
vn 0.256440 -0.068713 -0.964115
vn 0.239970 0.968367 0.068411
vn 0.239970 0.968367 0.068411
vn 0.239970 0.968367 0.068411
vn 0.239970 0.968367 0.068411
vn -0.256440 0.068713 0.964115
vn -0.256440 0.068713 0.964115
vn -0.256440 0.068713 0.964115
vn -0.256440 0.068713 0.964115
vn -0.276363 -0.958615 0.068411
vn -0.276363 -0.958615 0.068411
vn -0.276363 -0.958615 0.068411
vn -0.276363 -0.958615 0.068411
vn -0.187727 -0.187727 -0.964115
vn -0.187727 -0.187727 -0.964115
vn -0.187727 -0.187727 -0.964115
vn -0.187727 -0.187727 -0.964115
vn 0.718645 -0.692003 0.068411
vn 0.718645 -0.692003 0.068411
vn 0.718645 -0.692003 0.068411
vn 0.718645 -0.692003 0.068411
vn 0.187726 0.187728 0.964115
vn 0.187726 0.187728 0.964115
vn 0.187726 0.187728 0.964115
vn 0.187726 0.187728 0.964115
vn -0.692004 0.718645 0.068411
vn -0.692004 0.718645 0.068411
vn -0.692004 0.718645 0.068411
vn -0.692004 0.718645 0.068411
vn -0.068713 0.256440 -0.964115
vn -0.068713 0.256440 -0.964115
vn -0.068713 0.256440 -0.964115
vn -0.068713 0.256440 -0.964115
vn -0.958615 -0.276364 0.068411
vn -0.958615 -0.276364 0.068411
vn -0.958615 -0.276364 0.068411
vn -0.958615 -0.276364 0.068411
vn 0.068715 -0.256440 0.964115
vn 0.068715 -0.256440 0.964115
vn 0.068715 -0.256440 0.964115
vn 0.068715 -0.256440 0.964115
vn 0.968367 0.239971 0.068411
vn 0.968367 0.239971 0.068411
vn 0.968367 0.239971 0.068411
vn 0.968367 0.239971 0.068411
s 1
g pCylinder1
usemtl aiStandardSurface1SG
f 1/85/1 2/86/2 14/87/3
f 2/86/2 3/88/4 14/87/3
f 3/88/4 4/90/5 14/87/3
f 4/90/5 5/92/6 14/87/3
f 5/92/6 6/94/7 14/87/3
f 6/94/7 7/48/8 14/87/3
f 7/48/8 8/47/9 14/87/3
f 8/47/9 9/95/10 14/87/3
f 9/95/10 10/93/11 14/87/3
f 10/93/11 11/91/12 14/87/3
f 11/91/12 12/89/13 14/87/3
f 12/89/13 1/85/1 14/87/3
s 2
f 16/25/14 15/26/15 51/27/16 52/28/17
s 3
f 17/29/18 16/25/19 52/28/20 53/30/21
s 4
f 18/31/22 17/29/23 53/30/24 54/97/25
s 5
f 19/96/26 18/31/27 54/97/28 55/32/29
s 6
f 20/99/30 19/96/31 55/32/32 56/98/33
s 7
f 21/35/34 20/33/35 56/34/36 57/36/37
s 8
f 22/37/38 21/35/39 57/36/40 58/38/41
s 9
f 23/39/42 22/37/43 58/38/44 59/40/45
s 10
f 24/41/46 23/39/47 59/40/48 60/42/49
s 11
f 25/43/50 24/41/51 60/42/52 61/44/53
s 12
f 26/45/54 25/43/55 61/44/56 62/46/57
s 13
f 15/26/58 26/45/59 62/46/60 51/27/61
s 14
f 27/100/62 28/101/63 30/102/64 29/103/65
f 28/101/63 27/100/62 49/104/66 50/105/67
f 29/103/65 30/102/64 32/107/68 31/108/69
f 31/108/69 32/107/68 34/114/70 33/115/71
f 33/115/71 34/114/70 36/120/72 35/121/73
f 35/121/73 36/120/72 38/126/74 37/127/75
f 37/127/75 38/126/74 40/132/76 39/133/77
f 39/133/77 40/132/76 42/131/78 41/130/79
f 41/130/79 42/131/78 44/125/80 43/124/81
f 43/124/81 44/125/80 46/119/82 45/118/83
f 45/118/83 46/119/82 48/113/84 47/112/85
f 47/112/85 48/113/84 50/105/67 49/104/66
f 27/100/62 29/103/65 26/109/86 15/110/87
f 29/103/65 31/108/69 25/116/88 26/109/86
f 31/108/69 33/115/71 24/122/89 25/116/88
f 33/115/71 35/121/73 23/128/90 24/122/89
f 35/121/73 37/127/75 22/134/91 23/128/90
f 37/127/75 39/133/77 21/136/92 22/134/91
f 39/133/77 41/130/79 20/135/93 21/136/92
f 41/130/79 43/124/81 19/129/94 20/135/93
f 43/124/81 45/118/83 18/123/95 19/129/94
f 45/118/83 47/112/85 17/117/96 18/123/95
f 47/112/85 49/104/66 16/111/97 17/117/96
f 49/104/66 27/100/62 15/110/87 16/111/97
f 30/102/64 28/101/63 13/106/98
f 32/107/68 30/102/64 13/106/98
f 34/114/70 32/107/68 13/106/98
f 36/120/72 34/114/70 13/106/98
f 38/126/74 36/120/72 13/106/98
f 40/132/76 38/126/74 13/106/98
f 42/131/78 40/132/76 13/106/98
f 44/125/80 42/131/78 13/106/98
f 46/119/82 44/125/80 13/106/98
f 48/113/84 46/119/82 13/106/98
f 50/105/67 48/113/84 13/106/98
f 28/101/63 50/105/67 13/106/98
s 2
f 52/49/17 51/50/16 1/51/99 63/52/100
s 3
f 53/56/21 52/49/20 63/52/101 64/57/102
s 4
f 54/59/25 53/56/24 64/57/103 10/60/104
s 5
f 55/79/29 54/59/28 10/60/105 9/80/106
s 6
f 56/67/33 55/79/32 9/80/107 65/68/108
s 7
f 57/64/37 56/67/36 65/68/109 66/65/110
s 8
f 58/63/41 57/64/40 66/65/111 6/66/112
s 9
f 59/137/45 58/63/44 6/66/113 5/138/114
s 10
f 60/73/49 59/70/48 5/71/115 67/74/116
s 11
f 61/81/53 60/73/52 67/74/117 68/82/118
s 12
f 62/53/57 61/81/56 68/82/119 2/54/120
s 13
f 51/50/61 62/53/60 2/54/121 1/51/122
s 2
f 63/52/100 1/51/99 69/55/123
s off
f 76/11/124 75/12/125 77/149/126 78/147/127
s 4
f 10/60/104 64/57/103 70/61/128
s 6
f 65/68/108 9/80/107 71/75/129
s off
f 80/3/130 79/141/131 81/7/132 82/4/133
s 8
f 6/66/112 66/65/111 72/69/134
s 10
f 67/74/116 5/71/115 73/77/135
s off
f 84/17/136 83/145/137 85/9/138 86/18/139
s 12
f 2/54/120 68/82/119 74/83/140
s 2
f 69/55/123 1/51/99 12/58/141
s off
f 70/61/142 69/55/143 12/58/144 11/62/145
s 4
f 10/60/104 70/61/128 11/62/146
s 6
f 71/75/129 9/80/107 8/76/147
s off
f 72/69/148 71/75/149 8/76/150 7/72/151
s 8
f 6/66/112 72/69/134 7/72/152
s 10
f 73/77/135 5/71/115 4/78/153
s off
f 74/83/154 73/77/155 4/78/156 3/84/157
s 12
f 2/54/120 74/83/140 3/84/158
s off
f 64/24/159 63/21/160 75/12/161 76/11/162
f 63/21/163 69/150/164 77/148/165 75/12/166
f 69/22/167 70/23/168 78/14/169 77/13/170
f 70/23/171 64/24/172 76/11/173 78/14/174
f 66/1/175 65/142/176 79/140/177 80/139/178
f 65/19/179 71/20/180 81/7/181 79/6/182
f 71/20/183 72/2/184 82/4/185 81/7/186
f 72/2/187 66/1/188 80/139/189 82/4/190
f 68/16/191 67/5/192 83/10/193 84/143/194
f 67/5/195 73/8/196 85/9/197 83/10/198
f 73/8/199 74/15/200 86/18/201 85/9/202
f 74/15/203 68/146/204 84/144/205 86/18/206
